<?xml version="1.0" encoding="utf-8" ?>
<svg xmlns="http://www.w3.org/2000/svg" xmlns:xlink="http://www.w3.org/1999/xlink" width="4221" height="2110">
	<path fill="#163A8C" transform="scale(2.06117 2.06117)" d="M0 0L284.098 0L434.42 0L536.284 0L1249.25 0L1361.21 0L1443.23 0L1682.89 0L1896.88 0L2046.25 0C2049.22 4.73803 2049.21 35.0164 2047.58 41.1751C2047.31 42.2075 2046.83 43.1631 2046.29 44.0758C2049.16 48.6636 2049.1 85.2037 2047.59 91.5904C2047.39 92.4179 2047.02 93.203 2046.63 93.9498C2048.58 98.5841 2049.1 107.618 2047 112.318C2046.89 112.571 2046.76 112.816 2046.64 113.064C2047.32 114.563 2047.79 115.976 2047.89 117.63C2048.75 132.641 2049.41 272.111 2047.16 277.929C2046.96 278.465 2046.88 278.586 2046.65 279.049C2047.33 280.564 2047.79 281.984 2047.88 283.653C2048.85 301.886 2049.03 472.093 2047.17 476.871C2046.97 477.387 2046.89 477.518 2046.66 477.965C2047.89 480.8 2047.93 483.244 2047.98 486.292C2048.57 527.473 2048.03 568.74 2048.03 609.928L2048.01 849.933C2048.01 868.512 2049.7 1016.28 2047.29 1022.02C2046.99 1022.73 2046.66 1023.35 2046.25 1024L1460.24 1024L1360.33 1024L1249.22 1024L1051.32 1024L1040.23 1024L840.265 1024L829.694 1024L690.271 1024L677.88 1024L536.667 1024L0 1024L0 956.85L0 743.18L0 0Z"/>
	<path fill="#FEFEFE" transform="scale(2.06117 2.06117)" d="M677.88 1024C678.163 1021.26 678.295 1017.87 680.688 1016.06C682.838 1014.44 683.903 1014.64 686.377 1014.99C688.369 1016.4 689.504 1017.48 689.974 1019.95C690.224 1021.25 690.23 1022.67 690.271 1024L677.88 1024Z"/>
	<path fill="#FEFEFE" transform="scale(2.06117 2.06117)" d="M1040.23 1024C1040.33 1023.83 1040.44 1023.67 1040.54 1023.5C1044.06 1017.02 1038.22 1008.08 1046.73 1004.23C1048.82 1004.5 1049.11 1004.48 1050.54 1006.21C1053.37 1009.63 1053.56 1015.55 1052.97 1019.72C1052.73 1021.36 1052.28 1022.63 1051.32 1024L1040.23 1024Z"/>
	<path fill="#FEFEFE" transform="scale(2.06117 2.06117)" d="M1020.07 276.668C1024.51 276.766 1028.95 276.361 1032.31 279.795C1033.81 281.326 1034.43 282.847 1034.89 284.898C1034.61 287.57 1033.66 289.131 1031.63 290.84C1029.11 292.963 1024.76 292.411 1021.66 292.391C1021.11 291.643 1020.6 290.863 1020.24 289.999C1018.56 285.988 1018.38 280.67 1020.07 276.668Z"/>
	<path fill="#FEFEFE" transform="scale(2.06117 2.06117)" d="M876.16 290.135C872.116 291.08 865.097 291.878 861.164 290.241C858.765 289.242 858.513 288.527 857.524 286.306C857.746 284.085 858.434 282.504 859.871 280.821C862.102 278.207 865.769 276.117 869.259 276.089C871.256 276.073 873.487 277.336 874.746 278.85C877.109 281.689 876.295 285.301 876.225 288.731L876.16 290.135Z"/>
	<path fill="#FEFEFE" transform="scale(2.06117 2.06117)" d="M829.694 1024C829.572 1017.65 828.614 1009.96 830.947 1004C831.82 1001.77 832.39 999.961 834.646 998.779C837.382 999.988 838.204 1001.89 839.24 1004.67C841.287 1010.18 840.282 1018.16 840.265 1024L829.694 1024Z"/>
	<path fill="#FEFEFE" transform="scale(2.06117 2.06117)" d="M831.48 159.605C833.219 159.73 835.264 159.733 836.87 160.454C838.5 161.186 839.404 162.096 839.937 163.836C841.716 169.643 840.815 198.16 838.269 203.311C836.704 203.282 835.067 203.319 833.584 202.758C831.838 202.097 830.798 201.445 830.154 199.61C828.401 194.607 829.275 163.91 831.48 159.605Z"/>
	<path fill="#FEFEFE" transform="scale(2.06117 2.06117)" d="M831.374 926.445C832.562 926.446 833.838 926.403 835.01 926.604C837.736 927.073 838.245 927.944 839.789 930.036C841.214 939.224 842.517 963.977 839.038 971.823C838.892 971.817 838.746 971.813 838.6 971.806C834.987 971.623 833.06 971.146 830.621 968.472C829.008 961.287 828.486 933.142 831.374 926.445Z"/>
	<path fill="#FEFEFE" transform="scale(2.06117 2.06117)" d="M833.596 311.65L838.276 313.433C840.692 316.025 840.772 319.959 840.995 323.316C841.525 331.29 842.755 351.472 837.618 357.355C835.528 356.929 833.913 356.287 832.034 355.281C829.938 352.415 829.794 348.703 829.552 345.272C829.181 339.999 828.618 318.748 830.861 314.796C831.434 313.786 832.81 312.554 833.596 311.65Z"/>
	<path fill="#FEFEFE" transform="scale(2.06117 2.06117)" d="M831.309 463.477C832.202 463.5 833.101 463.519 833.991 463.593C837.148 463.855 837.94 464.634 839.848 466.936C840.875 474.474 841.993 504.519 838.543 510.069C835.251 509.875 832.962 509.441 830.513 507.212C829.029 499.159 828.399 470.299 831.309 463.477Z"/>
	<path fill="#FEFEFE" transform="scale(2.06117 2.06117)" d="M832.484 849.465C834.791 849.705 836.992 849.733 838.876 851.25C839.723 851.932 840.071 853.436 840.191 854.473C841.078 862.156 841.923 893.379 837.841 898.584C836.433 898.322 835.017 898.085 833.709 897.477C831.9 896.637 831.066 896.025 830.482 894.019C828.659 887.749 829.255 854.603 832.484 849.465Z"/>
	<path fill="#FEFEFE" transform="scale(2.06117 2.06117)" d="M832.442 4.54225Q832.973 4.61834 833.501 4.71693C836.553 5.2845 838.071 5.886 839.804 8.36073C840.829 17.7005 842.147 46.2395 837.427 53.5703C835.452 53.3541 833.697 53.2151 831.943 52.1784C830.644 51.4103 830.141 50.5684 829.828 49.0741C828.268 41.6307 828.304 9.92669 832.442 4.54225Z"/>
	<path fill="#FEFEFE" transform="scale(2.06117 2.06117)" d="M832.923 82.6464L836.588 83.2003C838.278 84.4952 839.055 84.8771 839.77 86.9655C842.212 94.1047 841.82 123.963 838.607 130.356C836.002 130.233 834.474 130.062 832.218 128.606C830.294 125.864 829.962 123.012 829.643 119.753C828.802 111.168 827.564 89.25 832.923 82.6464Z"/>
	<path fill="#FEFEFE" transform="scale(2.06117 2.06117)" d="M832.23 536.505C833.004 536.578 833.782 536.651 834.551 536.768C837.717 537.25 838.485 537.869 840.289 540.328C841.653 549.18 842.266 574.991 839.035 583.388C836.256 583.283 834.132 583.186 831.585 581.886C830.794 580.759 830.067 580.085 829.917 578.686C829.084 570.951 827.957 541.872 832.23 536.505Z"/>
	<path fill="#FEFEFE" transform="scale(2.06117 2.06117)" d="M682.39 632.502C684.561 632.938 686.082 633.52 687.956 634.7C690.217 637.939 690.263 642.448 690.458 646.262C690.886 654.622 692.286 673.168 686.75 679.337C684.915 678.909 682.271 678.537 680.788 677.352C679.111 676.011 678.886 673.617 678.767 671.605C678.428 665.915 677.425 639.606 679.798 635.409C680.318 634.489 681.661 633.32 682.39 632.502Z"/>
	<path fill="#FEFEFE" transform="scale(2.06117 2.06117)" d="M831.426 387.785C834.204 387.856 837.181 387.555 839.322 389.612C842.635 395.691 841.572 427.221 839.817 434.284Q838.539 434.306 837.261 434.293C833.8 434.247 832.609 433.773 830.27 431.346C829.065 423.369 828.15 394.234 831.426 387.785Z"/>
	<path fill="#FEFEFE" transform="scale(2.06117 2.06117)" d="M831.502 611.549C832.209 611.557 832.919 611.565 833.624 611.613C836.884 611.837 837.671 612.334 839.711 614.695C841.011 623.6 842.123 654.134 838.711 661.492C837.663 661.51 836.556 661.555 835.518 661.403C832.666 660.986 832.17 660.338 830.439 658.215C829.06 649.249 828.113 619.14 831.502 611.549Z"/>
	<path fill="#FEFEFE" transform="scale(2.06117 2.06117)" d="M680.705 170.763C682.855 170.799 684.613 171.127 686.671 171.744C688.382 173.313 689.089 174.771 689.553 176.988C691.315 185.413 691.986 209.341 687.399 216.417L682.032 215.761C680.279 214.45 679.322 213.918 678.786 211.643C677.147 204.682 677.374 176.441 680.705 170.763Z"/>
	<path fill="#FEFEFE" transform="scale(2.06117 2.06117)" d="M1043.82 545.437C1045.1 545.236 1046.41 544.991 1047.71 545.205C1049.64 545.524 1050.79 546.303 1051.82 548.059C1054.72 552.995 1054.75 580.409 1052.54 585.504C1051.58 587.716 1050.49 587.736 1048.35 588.642L1044.9 588.324C1042.98 586.835 1042.34 586.174 1041.76 583.745C1039.94 576.052 1039.7 551.942 1043.82 545.437Z"/>
	<path fill="#FEFEFE" transform="scale(2.06117 2.06117)" d="M682.726 556.635C684.905 557.047 686.366 557.49 688.174 558.795C690.686 563.171 690.385 569.888 690.396 574.873C690.414 583.057 691.913 598.842 686.093 604.687C683.843 604.282 682.597 603.622 680.809 602.209C678.734 598.86 678.62 594.605 678.403 590.756C678.074 584.892 677.169 564.214 679.716 560.022C680.393 558.908 681.838 557.634 682.726 556.635Z"/>
	<path fill="#FEFEFE" transform="scale(2.06117 2.06117)" d="M680.334 862.607C682.175 862.591 684.239 862.447 686.003 863.031C687.954 863.677 688.964 864.467 689.699 866.451C691.598 871.579 690.693 904.662 688.19 909.302C687.127 909.31 686.048 909.326 684.989 909.227C682.037 908.949 681.173 907.845 679.418 905.721C677.92 897.879 677.319 869.836 680.334 862.607Z"/>
	<path fill="#FEFEFE" transform="scale(2.06117 2.06117)" d="M680.595 708.611C681.98 708.623 683.684 708.517 685.029 708.84C687.634 709.465 688.215 710.4 689.697 712.445C690.752 720.262 691.888 748.669 687.984 754.61C686.49 754.764 684.476 755.152 682.998 754.916C680.768 754.561 680.229 753.326 679.086 751.615C677.873 742.556 676.749 716.256 680.595 708.611Z"/>
	<path fill="#FEFEFE" transform="scale(2.06117 2.06117)" d="M833.613 233.425C835.459 233.99 836.917 234.792 838.57 235.781C840.642 238.9 840.609 242.987 840.772 246.626C841.139 254.836 842.497 277.591 837.046 283.521C834.93 282.931 833.354 282.263 831.537 281.026C826.59 273.057 828.762 253.931 829.27 244.812C829.556 239.695 829.612 237.004 833.613 233.425Z"/>
	<path fill="#FEFEFE" transform="scale(2.06117 2.06117)" d="M683.052 321.47C685.201 321.869 686.399 322.513 688.109 323.863C690.297 327.537 690.21 332.491 690.329 336.68C690.579 345.549 692.346 362.708 686.122 369.306C683.842 368.704 682.127 368.269 680.331 366.621C676.091 359.819 677.541 344.708 677.939 336.944C678.279 330.311 677.818 326.187 683.052 321.47Z"/>
	<path fill="#F6F2F9" transform="scale(2.06117 2.06117)" d="M891.431 225.197C892.338 227.756 892.951 230.381 893.593 233.014C889.969 249.585 888.266 267.423 883.427 283.55C883.018 285.552 882.902 287.604 881.316 289.029L881.98 285.214C878.622 291.023 878.098 296.883 877.991 303.432L878.539 304.464L881.485 304.532C881.828 309.558 878.564 313.836 878.934 318.152C879.551 325.344 886.383 328.874 883.354 337.125C875.197 324.501 876.971 304.769 876.16 290.135L876.225 288.731C878.545 266.59 884.558 246.236 891.431 225.197Z"/>
	<path fill="#FEFEFE" transform="scale(2.06117 2.06117)" d="M1044.71 469.445C1047.82 469.364 1048.8 469.127 1051.5 470.892C1055.62 477.43 1054.97 502.95 1053.39 510.239C1052.77 513.087 1051.76 513.299 1049.39 514.644C1047.7 515.027 1046.56 514.685 1044.91 514.234C1043.07 512.665 1042.41 511.081 1042.07 508.735C1040.89 500.465 1039.79 475.842 1044.71 469.445Z"/>
	<path fill="#FEFEFE" transform="scale(2.06117 2.06117)" d="M682.465 247.674C684.742 248.056 686.289 248.459 688.191 249.797C691.923 255.988 690.675 268.616 690.437 275.612C690.178 283.208 691.047 289.433 685.2 294.878C683.182 294.159 681.788 293.263 680.125 291.92C677.137 286.707 677.642 277.962 677.636 272.053C677.627 263.826 676.408 253.756 682.465 247.674Z"/>
	<path fill="#FEFEFE" transform="scale(2.06117 2.06117)" d="M682.709 397.56C684.786 398.107 686.184 398.776 687.914 400.05C691.047 405.539 690.365 414.875 690.345 421.044C690.318 429.695 691.678 439.67 685.252 446.067C683.113 445.317 681.763 444.475 680.082 442.957C675.782 434.983 677.553 418.242 678.109 409.407C678.446 404.048 678.473 401.288 682.709 397.56Z"/>
	<path fill="#FEFEFE" transform="scale(2.06117 2.06117)" d="M831.21 691.569C834.806 691.53 837.181 691.44 839.794 693.98C841.414 703.847 842.239 733.589 839.096 742.682C837.924 742.832 836.665 743.041 835.484 742.988C832.73 742.865 832.22 741.998 830.537 740.046C829.198 731.945 828.519 698.281 831.21 691.569Z"/>
	<path fill="#FEFEFE" transform="scale(2.06117 2.06117)" d="M1044.19 160.457C1046.06 160.13 1047.72 160.147 1049.61 160.239C1050.47 160.87 1051.78 161.543 1052.29 162.481C1055.72 168.778 1055.55 195.352 1053.47 201.689C1052.66 204.153 1051.52 204.354 1049.41 205.536C1048.13 205.951 1046.95 205.737 1045.62 205.646C1043.98 204.212 1043.3 203.625 1042.68 201.458C1040.47 193.766 1040.48 167.236 1044.19 160.457Z"/>
	<path fill="#FEFEFE" transform="scale(2.06117 2.06117)" d="M1044.14 5.45114C1046.03 5.14057 1047.64 5.20394 1049.53 5.37353C1050.37 6.05817 1051.57 6.76401 1052.06 7.73154C1055.37 14.2752 1055.53 41.6386 1053.21 48.2667C1052.32 50.8081 1051.53 50.8554 1049.23 52.0904C1048.15 52.6122 1047.11 52.3551 1045.93 52.2932C1044.23 50.8531 1043.5 50.3127 1042.86 48.1156C1040.89 41.3272 1040.93 11.3464 1044.14 5.45114Z"/>
	<path fill="#FEFEFE" transform="scale(2.06117 2.06117)" d="M682.814 784.454C684.597 784.754 685.991 784.977 687.41 786.179C690.088 788.447 690.226 793.173 690.442 796.423C690.855 802.634 691.784 825.783 689.126 830.131C688.453 831.232 687.112 832.45 686.247 833.445C683.955 833.172 682.595 832.623 680.673 831.352C676.968 825.316 678.073 813.338 678.235 806.449C678.408 799.048 677.111 789.9 682.814 784.454Z"/>
	<path fill="#FEFEFE" transform="scale(2.06117 2.06117)" d="M1043.01 697.452C1046.59 696.878 1048.11 696.81 1051.04 698.923C1054.99 705.699 1054.5 732.325 1052.68 740.539C1052.13 743.009 1051.28 743.06 1049.21 744.409L1046.98 745.034C1044.56 744.201 1043.81 744.011 1042.69 741.504C1040.06 735.655 1040.84 703.407 1043.01 697.452Z"/>
	<path fill="#FEFEFE" transform="scale(2.06117 2.06117)" d="M681.43 938.49C684.109 938.793 686.448 938.863 688.59 940.706C690.04 941.954 690.121 944.712 690.225 946.459C690.713 954.728 692.322 981.309 687.345 986.943C685.426 986.708 682.779 986.612 681.128 985.575C679.5 984.552 678.984 983.015 678.733 981.178C677.629 973.095 676.94 944.313 681.43 938.49Z"/>
	<path fill="#FEFEFE" transform="scale(2.06117 2.06117)" d="M1043.55 394.453C1045.42 394.175 1047.27 394.165 1049.17 394.136C1050.07 394.766 1051.4 395.423 1051.94 396.376C1055.48 402.619 1055.46 430.195 1053.32 436.654C1052.51 439.07 1051.32 439.255 1049.23 440.38L1046.34 440.533C1044.37 439.415 1043.72 439.265 1042.84 437.076C1040.71 431.738 1040.91 400.216 1043.55 394.453Z"/>
	<path fill="#FEFEFE" transform="scale(2.06117 2.06117)" d="M682.871 89.5092C684.882 90.0227 686.261 90.837 687.957 92.0171C689.343 94.306 689.738 96.4558 690.023 99.0931C690.775 106.057 691.93 131.108 689.178 136.197C688.592 137.282 687.259 138.569 686.462 139.553C684.251 139.153 682.387 138.422 680.327 137.571C678.723 135.551 678.737 133.546 678.583 131.06C678.199 124.867 677.405 96.7608 679.893 92.852C680.606 91.7323 681.97 90.5202 682.871 89.5092Z"/>
	<path fill="#FEFEFE" transform="scale(2.06117 2.06117)" d="M831.512 771.681C832.664 771.684 833.866 771.655 835.008 771.811C837.739 772.182 838.191 772.665 839.833 774.702C841.716 785.615 841.882 812.562 839.334 823.273C837.559 823.351 835.291 823.642 833.609 823.008C831.917 822.37 830.909 821.222 830.287 819.529C828.289 814.093 829.011 776.797 831.512 771.681Z"/>
	<path fill="#FEFEFE" transform="scale(2.06117 2.06117)" d="M680.278 12.5063C681.495 12.5153 682.728 12.5156 683.941 12.6248C686.923 12.8933 687.902 13.8004 689.759 15.9683C690.89 24.4292 692.068 54.1594 687.888 60.7589C686.173 60.7928 684.262 60.9428 682.621 60.3812C680.736 59.7358 679.803 58.9656 679.09 57.0513C677.097 51.7015 677.964 17.8108 680.278 12.5063Z"/>
	<path fill="#FEFEFE" transform="scale(2.06117 2.06117)" d="M1045.96 926.468C1046.96 926.489 1048.12 926.453 1049.08 926.712C1050.86 927.191 1051.58 928.338 1052.25 929.93C1054.53 935.345 1054.63 968.12 1052.14 973.269C1051.1 975.402 1049.24 975.443 1047.16 976.07C1045.58 975.982 1044.68 975.084 1043.49 974.145C1040.09 968.134 1040.9 938.984 1042.11 931.668C1042.61 928.652 1043.58 928.089 1045.96 926.468Z"/>
	<path fill="#FEFEFE" transform="scale(2.06117 2.06117)" d="M1043.63 851.447C1045.76 851.012 1047.46 850.841 1049.63 851.121C1050.62 851.737 1051.51 852.442 1052.09 853.477C1055.27 859.138 1055.08 887.546 1053.18 894.341C1052.43 897.015 1051.44 897.158 1049.22 898.465C1048.14 898.917 1046.73 898.769 1045.56 898.8C1044.03 897.747 1043.41 897.479 1042.74 895.652C1040.38 889.23 1040.89 857.176 1043.63 851.447Z"/>
	<path fill="#FEFEFE" transform="scale(2.06117 2.06117)" d="M1043.93 773.444C1045.09 773.332 1046.26 773.221 1047.42 773.314C1050.06 773.526 1051.1 774.445 1052.75 776.272C1054.5 789.662 1053.65 805.061 1052.87 818.587C1051.4 820.817 1050.2 820.784 1047.73 821.544C1046.3 821.887 1045.04 821.281 1043.7 820.826C1041.34 818.009 1041.49 813.85 1041.33 810.354C1041 803.087 1039.24 778.582 1043.93 773.444Z"/>
	<path fill="#FEFEFE" transform="scale(2.06117 2.06117)" d="M1044.81 314.447C1046.39 314.335 1048 314.359 1049.6 314.334C1050.36 314.894 1051.45 315.459 1051.91 316.289C1054.81 321.546 1055.13 352.701 1053.07 359.292C1052.27 361.852 1051.51 361.85 1049.23 363.093C1046.96 363.913 1046.76 363.815 1044.44 363.112C1042.46 361.013 1042.15 358.785 1041.91 356.039C1041.2 347.832 1039.97 320.147 1044.81 314.447Z"/>
	<path fill="#FEFEFE" transform="scale(2.06117 2.06117)" d="M1043.78 82.4484C1044.59 82.2741 1045.42 82.092 1046.24 82.0415C1049.11 81.866 1049.61 82.0707 1051.75 83.7956C1055.68 90.7275 1055.08 117.695 1053.51 126.232C1053.02 128.852 1052.17 129.132 1050.09 130.537C1048.64 131.154 1047.02 130.886 1045.48 130.812C1043.76 129.501 1043.2 129.185 1042.49 127.051C1040.32 120.487 1040.7 88.2388 1043.78 82.4484Z"/>
	<path fill="#FEFEFE" transform="scale(2.06117 2.06117)" d="M681.625 475.58C683.62 475.838 685.496 476.45 687.413 477.03C689.318 479.151 689.762 479.788 690.103 482.597C690.832 488.608 691.555 518.911 689.237 523.651C688.747 524.652 687.427 525.957 686.714 526.865C684.354 526.465 682.722 526.2 680.848 524.548C678.326 522.327 678.066 515.527 677.905 512.261C677.478 503.592 675.858 481.95 681.625 475.58Z"/>
	<path fill="#FEFEFE" transform="scale(2.06117 2.06117)" d="M1044.42 619.45C1047.11 619.349 1049.35 619.09 1051.73 620.605C1052.67 621.204 1053.11 622.465 1053.3 623.524C1054.53 630.488 1055.59 661.519 1051.88 666.409C1050.45 668.284 1048.39 668.182 1046.23 668.586C1045.67 668.381 1045.1 668.198 1044.62 667.82C1042.43 666.06 1041.88 664.155 1041.59 661.454C1040.67 652.822 1039.05 625.852 1044.42 619.45Z"/>
	<path fill="#FEFEFE" transform="scale(2.06117 2.06117)" d="M1043.73 235.452C1045.51 235.168 1047.25 234.809 1049.05 235.207C1050.55 235.539 1051.75 236.571 1052.48 237.944C1055.43 243.521 1055.16 276.258 1053.23 282.299C1052.39 284.927 1051.56 284.956 1049.21 286.245C1048.24 286.715 1047.01 286.545 1045.94 286.551C1044 284.985 1043.28 284.475 1042.63 281.939C1040.93 275.271 1040.62 240.687 1043.73 235.452Z"/>
	<path fill="#0C226C" transform="scale(2.06117 2.06117)" d="M1087.91 814.057C1101.15 824.282 1143.21 822.419 1159.95 820.308C1163.03 819.92 1165.72 819.379 1168.45 817.855L1169.7 815.964C1171.07 819.249 1170.34 822.133 1169.22 825.373C1167.33 830.817 1163.15 834.54 1158.09 836.966C1138.5 837.45 1118.76 838.268 1099.21 836.628C1098.9 835.832 1099.06 836.022 1098.58 835.478C1092.5 828.659 1090.05 822.777 1087.91 814.057Z"/>
	<path fill="#0C226C" transform="scale(2.06117 2.06117)" d="M909.722 769.233C907.667 763.046 905.792 757.953 907.204 751.427C911.942 757.447 915.246 758.817 922.813 759.697C933.448 760.934 977.842 762.247 984.951 756.678C985.617 756.157 986.234 755.58 986.864 755.017C986.376 764.249 985.677 769.605 978.704 776.034Q974.855 777.193 970.932 778.072Q967.009 778.95 963.033 779.543Q959.057 780.136 955.049 780.441Q951.04 780.745 947.02 780.76C933.181 780.872 920.025 779.371 909.722 769.233Z"/>
	<path fill="#0C226C" transform="scale(2.06117 2.06117)" d="M564.703 955.746C567.599 962.033 570.168 966.18 576.85 968.731C588.857 973.313 621.97 971.919 634.92 969.296C638.582 966.005 641.477 962.994 644.169 958.806C644.274 967.803 641.842 976.439 635.56 983.128C627.739 991.455 616.312 993.565 605.367 993.911C594.177 994.265 582.788 992.592 574.395 984.496C565.831 976.235 564.802 966.946 564.703 955.746Z"/>
	<path fill="#0C226C" transform="scale(2.06117 2.06117)" d="M571.842 360.031C574.549 363.613 576.199 365.12 580.772 365.747C592.024 367.288 635.562 367.548 645.599 364.178C643.622 374.34 642.096 381.28 633.951 388.39C618.37 392.708 598.108 391.593 582.365 388.128Q581.749 387.635 581.15 387.122C573.021 380.106 572.687 369.992 571.842 360.031Z"/>
	<path fill="#0C226C" transform="scale(2.06117 2.06117)" d="M1165.94 254.01C1166.31 254.478 1166.66 254.945 1166.94 255.469C1169.04 259.291 1168 266.125 1166.89 270.198C1165.67 274.722 1162.2 278.439 1158.15 280.654C1147.62 286.415 1121.54 285.497 1109.99 282.148C1105.63 280.885 1102.5 279.074 1100.31 274.961C1097.16 269.028 1096.92 259.201 1098.81 252.831C1101.2 254.732 1104.07 257.278 1107 258.241C1117.16 261.58 1144.27 261.003 1155.57 259.683C1159.48 259.226 1162.71 258.457 1165.5 255.528L1165.94 254.01Z"/>
	<path fill="#0C226C" transform="scale(2.06117 2.06117)" d="M724.832 150.388C728.402 156.19 732.053 161.583 739.085 163.311C749.008 165.748 789.963 166.013 797.827 160.972C801.11 158.868 803.308 155.286 805.116 151.914C805.55 156.551 805.223 162.086 804.111 166.599C801.614 176.739 794.385 182.645 785.898 187.823C771.219 188.596 748.727 191.414 736.744 181.701C727.028 173.826 725.96 161.943 724.832 150.388Z"/>
	<path fill="#0C226C" transform="scale(2.06117 2.06117)" d="M803.059 524.75C801.964 532.097 801.315 542.742 795.912 548.338C787.775 556.766 769.318 555.658 758.367 555.513C749.787 555.4 740.519 554.647 734.296 547.996C728.083 541.355 726.34 529.405 726.797 520.609C730.614 525.9 733.511 527.012 739.89 528.04C752.312 530.043 790.099 531.21 801.241 525.684C801.454 525.579 801.67 525.479 801.884 525.374C802.282 525.18 802.671 524.966 803.059 524.75Z"/>
	<path fill="#0C226C" transform="scale(2.06117 2.06117)" d="M722.01 935.456C737.338 946.56 768.105 945.462 785.932 942.653C792.445 941.627 798.88 939.987 804.944 937.372C806.136 941.036 805.616 946.171 805.696 950.053C803.686 952.711 801.808 955.238 799.14 957.293C787.213 966.48 770.119 969.363 755.454 967.547C742.542 965.948 729.676 961.04 721.457 950.555C721.143 945.748 720.651 940.104 722.01 935.456Z"/>
	<path fill="#75D1F6" transform="scale(2.06117 2.06117)" d="M806.174 887.616C807.463 898.594 809.356 928.083 804.944 937.372C798.88 939.987 792.445 941.627 785.932 942.653C768.105 945.462 737.338 946.56 722.01 935.456C721.475 926.162 721.416 916.503 722.117 907.228L723.243 908.282C725.826 911.833 728.892 912.546 733.041 913.205C744.034 914.951 795.658 916.231 803.528 911.051C804.367 910.499 805.064 909.762 805.71 909.003C806.657 902.149 806.097 894.563 806.174 887.616Z"/>
	<path fill="#0C226C" transform="scale(2.06117 2.06117)" d="M894.649 343.642Q929.908 343.923 965.168 343.836C979.549 343.828 994.75 344.71 1009 342.634L1009.16 344.56C1006.78 346.282 1004.92 346.932 1004.32 350.014C1002.85 357.519 1003.18 364.114 996.577 369.405C994.293 371.235 992.242 371.775 989.393 372.115C976.67 373.634 962.604 372.423 949.745 372.39C936.9 372.357 922.5 373.596 909.819 371.865C903.314 370.977 899.825 366.974 896.086 361.977Q894.74 353.196 893.186 344.449L894.649 343.642Z"/>
	<path fill="#03020E" transform="scale(2.06117 2.06117)" d="M1087.91 814.057C1091.63 803.702 1087.2 788.882 1090.67 776.934C1094.78 781.78 1098.19 781.947 1104.23 782.445C1113.8 783.233 1157.9 784.768 1163.96 779.471C1164.79 778.746 1164.85 778.165 1165.17 777.13C1167.89 778.653 1168.91 779.568 1169.8 782.633C1171.98 790.131 1173.56 808.323 1170.19 814.978C1170.09 815.183 1170 815.395 1169.9 815.601C1169.84 815.724 1169.76 815.843 1169.7 815.964L1168.45 817.855C1165.72 819.379 1163.03 819.92 1159.95 820.308C1143.21 822.419 1101.15 824.282 1087.91 814.057Z"/>
	<path fill="#FCBE14" transform="scale(2.06117 2.06117)" d="M1113.12 797.494C1123.57 796.358 1134.53 797.043 1145.05 797.084C1145.69 798.104 1146.03 799.317 1146.24 800.498C1146.83 803.81 1146.07 806.406 1144.17 809.123L1143.31 809.755C1136.97 810.418 1119.17 811.801 1114.09 808.235C1113.99 804.581 1113.71 801.101 1113.12 797.494Z"/>
	<path fill="#69C76B" transform="scale(2.06117 2.06117)" d="M1090.67 776.934C1090.73 776.692 1090.79 776.451 1090.84 776.209C1096.45 751.38 1080.2 710.337 1105.96 693.9C1115.86 687.585 1130.02 686.281 1141.28 688.931C1150.06 690.994 1157.91 696.113 1162.68 703.841Q1163.54 705.206 1164.24 706.656Q1164.95 708.105 1165.49 709.622Q1166.04 711.139 1166.42 712.706Q1166.8 714.273 1167.01 715.871C1167.96 722.722 1168 768.632 1166.64 774.108C1166.37 775.209 1165.75 776.178 1165.17 777.13C1164.85 778.165 1164.79 778.746 1163.96 779.471C1157.9 784.768 1113.8 783.233 1104.23 782.445C1098.19 781.947 1094.78 781.78 1090.67 776.934Z"/>
	<path fill="#FCBE14" transform="scale(2.06117 2.06117)" d="M1098.81 252.831C1097.99 249.429 1096.91 245.925 1096.62 242.439C1095.18 225.324 1096.04 207.445 1096.01 190.243C1095.98 176.023 1094.98 160.906 1096.41 146.793C1096.85 142.385 1097.71 137.289 1100.08 133.459C1104.43 126.445 1111.12 122.131 1119.11 120.369C1130.99 117.747 1148.38 117.795 1158.74 124.464C1165.33 128.702 1169.44 135.37 1170.9 143.008C1173.95 158.953 1171.67 185.88 1171.56 202.753C1171.49 215.566 1172.65 228.978 1171.35 241.7C1171 245.124 1170.41 249.015 1168.29 251.85C1167.62 252.739 1166.83 253.358 1165.94 254.01L1165.5 255.528C1162.71 258.457 1159.48 259.226 1155.57 259.683C1144.27 261.003 1117.16 261.58 1107 258.241C1104.07 257.278 1101.2 254.732 1098.81 252.831Z"/>
	<path fill="#03020E" transform="scale(2.06117 2.06117)" d="M1152.79 222.496C1155.17 222.17 1157.46 221.872 1159.87 222.063C1161.99 222.232 1164.06 223.234 1165.39 224.975C1166.58 226.54 1167.17 228.068 1166.72 230.075C1166.16 232.584 1164.44 234.451 1162.32 235.772C1161.13 236.411 1158.29 236.916 1156.9 236.73C1155.91 236.599 1154.77 236.158 1154.14 235.356C1151.22 231.593 1152.24 226.873 1152.79 222.496Z"/>
	<path fill="#03020E" transform="scale(2.06117 2.06117)" d="M1101.51 222.495C1105.32 222.068 1109.28 222.184 1113.12 222.109C1114.52 224.257 1115.36 228.163 1115.01 230.716C1114.58 233.759 1113.55 234.339 1111.22 236.138C1110.09 236.447 1108.79 236.893 1107.61 236.928C1104.75 237.013 1104.2 236.525 1102.25 234.679C1100.53 230.71 1101.16 226.674 1101.51 222.495Z"/>
	<path fill="#03020E" transform="scale(2.06117 2.06117)" d="M1117.93 222.495C1127.05 221.341 1137.07 222.117 1146.3 222.073C1147.31 223.677 1147.75 225.351 1148.01 227.212C1148.5 230.604 1148.25 234.053 1146.11 236.826L1145.48 237.519C1137.59 239.776 1125.25 238.004 1116.87 237.918C1119.45 232.966 1118.7 227.82 1117.93 222.495Z"/>
	<path fill="#F06830" transform="scale(2.06117 2.06117)" d="M726.797 520.609C724.505 500.478 722.76 440.665 726.452 422.457C727.616 416.716 729.952 411.364 733.616 406.771C740.464 398.186 750.835 393.546 761.602 392.428C772.879 391.256 784.71 394.089 793.475 401.483C801.804 408.51 806.223 418.515 806.974 429.263C807.946 443.169 806.842 457.476 806.785 471.424C806.733 483.996 807.849 496.942 806.668 509.46C806.159 514.853 805.41 519.794 803.059 524.75C802.671 524.966 802.282 525.18 801.884 525.374C801.67 525.479 801.454 525.579 801.241 525.684C790.099 531.21 752.312 530.043 739.89 528.04C733.511 527.012 730.614 525.9 726.797 520.609Z"/>
	<path fill="#E3E9E7" transform="scale(2.06117 2.06117)" d="M753.695 497.982C760.817 497.565 768.08 497.812 775.22 497.785C776.935 502.916 779.18 507.921 776.785 513.107L750.462 513.165C751.164 507.918 751.779 502.959 753.695 497.982Z"/>
	<path fill="#FCBE14" transform="scale(2.06117 2.06117)" d="M724.832 150.388C724.109 131.444 724.39 112.416 724.315 93.4578C724.265 80.7665 722.816 66.5522 725.395 54.1106C726.623 48.1845 729.226 42.5997 733.313 38.1032C740.421 30.2824 749.788 28.0648 759.964 27.7287C772.176 27.3252 786.318 27.1367 795.792 36.0958C804.091 43.9432 805.949 54.9623 806.126 65.8764C806.396 82.4917 805.928 99.1749 805.905 115.799C805.889 127.513 806.906 140.358 805.116 151.914C803.308 155.286 801.11 158.868 797.827 160.972C789.963 166.013 749.008 165.748 739.085 163.311C732.053 161.583 728.402 156.19 724.832 150.388Z"/>
	<path fill="#F6F2F9" transform="scale(2.06117 2.06117)" d="M752.945 133.311C758.632 132.95 767.43 131.403 772.732 133.169C774.757 133.844 776.129 134.949 776.964 136.895C778.378 140.193 776.231 144.707 775.104 147.849C767.527 148.224 759.821 147.968 752.228 147.99C751.899 143.437 751.158 137.571 752.945 133.311Z"/>
	<path fill="#FCBE14" transform="scale(2.06117 2.06117)" d="M564.703 955.746C563.028 936.96 564.15 917.298 564.153 898.404C564.154 885.901 562.729 871.569 564.726 859.248C565.718 853.126 567.72 847.389 571.758 842.587C578.4 834.689 588.443 831.907 598.381 831.19C610.47 830.318 625.332 831.01 634.943 839.236C641.908 845.198 645.04 853.891 645.646 862.855C646.469 875.022 646.97 949.756 644.169 958.806C641.477 962.994 638.582 966.005 634.92 969.296C621.97 971.919 588.857 973.313 576.85 968.731C570.168 966.18 567.599 962.033 564.703 955.746Z"/>
	<path fill="#FEFEFE" transform="scale(2.06117 2.06117)" d="M592.851 941.235C598.358 941.014 604.491 940.167 609.942 940.522C612.567 940.693 614.449 941.624 616.194 943.603C617.618 946.93 616.557 950.499 615.963 953.928C609.007 953.844 598.975 956.239 592.936 952.372C590.956 948.544 591.786 945.284 592.851 941.235Z"/>
	<path fill="#F06830" transform="scale(2.06117 2.06117)" d="M571.904 331.573C571.298 316.176 569.918 255.448 572.324 242.951C573.422 237.246 575.92 231.99 579.881 227.71C587.476 219.505 599.554 215.63 610.503 215.425C621.628 215.216 633.111 219.253 641.073 227.151C645.171 231.216 648.085 236.264 649.301 241.921C651.624 252.724 650.42 265.307 650.382 276.37L650.126 332.41C650.28 342.257 652.456 356.348 645.599 364.178C635.562 367.548 592.024 367.288 580.772 365.747C576.199 365.12 574.549 363.613 571.842 360.031Q571.643 345.801 571.904 331.573Z"/>
	<path fill="#020934" transform="scale(2.06117 2.06117)" d="M602.799 341.34C605.135 338.544 607.964 337.167 611.594 336.818C613.654 336.62 615.204 337.009 617.068 337.841C618.517 339.338 619.116 340.116 619.462 342.191C616.142 343.725 613.806 348.602 610.329 350.626C607.208 348.163 605.406 344.396 602.799 341.34Z"/>
	<path fill="#0C226C" transform="scale(2.06117 2.06117)" d="M621.785 343.723C621.69 340.687 621.613 337.779 623.2 335.055C624.957 332.04 628.054 329.688 631.483 328.961C634.671 328.285 638.096 329.101 640.803 330.867C644.822 333.488 645.263 336.983 646.102 341.381C643.978 345.424 641.594 349.605 636.86 350.912C633.676 351.79 629.796 350.745 627.063 349.022C625.063 347.761 623.315 345.518 621.785 343.723Z"/>
	<path fill="#0C226C" transform="scale(2.06117 2.06117)" d="M575.483 337.094C577.502 333.088 579.144 330.707 583.518 329.228C586.989 328.055 589.803 328.618 592.961 330.304C595.29 331.547 597.7 333.381 598.566 335.974C599.24 337.99 599.476 340.279 599.766 342.382C599.091 343.981 598.389 345.791 597.307 347.162C595.502 349.448 592.293 351.064 589.409 351.379C586.069 351.744 582.682 350.378 580.128 348.279C576.31 345.14 575.921 341.787 575.483 337.094Z"/>
	<path fill="#FEFEFE" transform="scale(2.06117 2.06117)" d="M722.117 907.228C725.172 876.297 723.098 843.725 723.155 812.56C723.174 802.461 722.557 791.958 723.644 781.93C724.163 777.152 725.559 769.7 728.97 766.053C736.526 757.972 772.385 760.572 784.352 760.445C790.505 760.38 795.948 761.9 800.374 766.337C802.27 768.237 804.274 770.551 804.89 773.23C807.726 785.572 806.037 801.034 806.058 813.706L806.174 887.616C806.097 894.563 806.657 902.149 805.71 909.003C805.064 909.762 804.367 910.499 803.528 911.051C795.658 916.231 744.034 914.951 733.041 913.205C728.892 912.546 725.826 911.833 723.243 908.282L722.117 907.228Z"/>
	<path fill="#2F92DD" transform="scale(2.06117 2.06117)" d="M732.635 878.408C751.155 873.942 778.228 872.63 796.568 878.459C801.347 888.397 803.607 898.216 805.71 909.003C805.064 909.762 804.367 910.499 803.528 911.051C795.658 916.231 744.034 914.951 733.041 913.205C728.892 912.546 725.826 911.833 723.243 908.282C725.044 898.269 727.264 887.203 732.635 878.408Z"/>
	<path fill="#FCBE14" transform="scale(2.06117 2.06117)" d="M907.204 751.427C903.632 736.628 903.386 647.48 905.125 631.471C905.798 625.272 907.304 618.217 910.609 612.858C914.506 606.541 921.77 602.12 928.892 600.512C941.612 597.64 965.845 597.852 976.597 605.085C983.763 609.905 987.892 617.434 989.313 625.844C992.006 641.78 989.734 666.02 989.657 682.755C989.567 702.468 990.938 722.669 989.562 742.316C989.253 746.726 988.384 750.867 986.864 755.017C986.234 755.58 985.617 756.157 984.951 756.678C977.842 762.247 933.448 760.934 922.813 759.697C915.246 758.817 911.942 757.447 907.204 751.427Z"/>
	<path fill="#03020E" transform="scale(2.06117 2.06117)" d="M936.18 725.291C942.771 725.386 952.754 722.919 958.346 726.603C960.531 729.284 959.873 732.947 959.77 736.201C952.912 736.024 943.354 738.43 937.398 734.771C935.284 732.216 936.025 728.403 936.18 725.291Z"/>
	<path fill="#020934" transform="scale(2.06117 2.06117)" d="M910.842 723.97C917.167 724.417 926.036 722.569 931.254 726.56C933.182 729.38 932.389 733.569 932.193 736.838C927.865 737.105 923.449 737.496 919.114 737.451C916.185 737.421 914.316 736.543 912.219 734.469C910.302 731.233 910.758 727.593 910.842 723.97Z"/>
	<path fill="#03020E" transform="scale(2.06117 2.06117)" d="M963.537 724.217C966.353 724.242 969.114 724.088 971.92 723.898C976.064 723.618 979.797 722.875 983.19 725.842C985.074 728.927 984.265 733.363 984.058 736.854C977.445 737.626 970.282 737.12 963.6 737.117L963.537 724.217Z"/>
	<path fill="#E3E9E7" transform="scale(2.06117 2.06117)" d="M891.431 225.197C892.616 220.951 893.893 216.592 894.332 212.195C896.161 193.878 891.783 109.204 895.555 100.945C895.818 100.37 895.701 100.54 896.339 100.184C899.758 98.2697 903.654 97.6094 907.512 97.2021C922.13 95.6585 989.951 95.3399 1002.01 98.5494C1005.86 102.956 1002.31 199.522 1003.88 216.169C1004.36 221.29 1005.85 226.095 1007.43 230.969C1005.22 232.992 1004.94 233.096 1004.76 236.138C1004.68 237.526 1004.76 238.956 1004.79 240.347C1004.47 238.439 1004.25 236.331 1003.47 234.55C1002.89 233.2 1002.6 232.506 1001.11 232.103C995.784 230.67 907.682 231.5 896.406 231.989C895.228 232.04 894.572 232.417 893.593 233.014C892.951 230.381 892.338 227.756 891.431 225.197Z"/>
	<path fill="#FEFEFE" transform="scale(2.06117 2.06117)" d="M893.593 233.014C894.572 232.417 895.228 232.04 896.406 231.989C907.682 231.5 995.784 230.67 1001.11 232.103C1002.6 232.506 1002.89 233.2 1003.47 234.55C1004.25 236.331 1004.47 238.439 1004.79 240.347C1004.76 238.956 1004.68 237.526 1004.76 236.138C1004.94 233.096 1005.22 232.992 1007.43 230.969C1010.55 241.177 1019.6 265.777 1018.53 275.474L1020.07 276.668C1018.38 280.67 1018.56 285.988 1020.24 289.999C1020.6 290.863 1021.11 291.643 1021.66 292.391L1021.2 292.771C1021.16 305.178 1022.79 329.886 1013.46 339.058C1012.11 340.386 1010.53 341.53 1009 342.634C994.75 344.71 979.549 343.828 965.168 343.836Q929.908 343.923 894.649 343.642C893.002 343.274 891.334 342.891 889.712 342.422C886.514 341.498 884.928 340.033 883.354 337.125C886.383 328.874 879.551 325.344 878.934 318.152C878.564 313.836 881.828 309.558 881.485 304.532L878.539 304.464L877.991 303.432C878.098 296.883 878.622 291.023 881.98 285.214L881.316 289.029C882.902 287.604 883.018 285.552 883.427 283.55C888.266 267.423 889.969 249.585 893.593 233.014Z"/>
	<path fill="#F6F2F9" transform="scale(2.06117 2.06117)" d="M1007.43 230.969C1010.55 241.177 1019.6 265.777 1018.53 275.474L1020.07 276.668C1018.38 280.67 1018.56 285.988 1020.24 289.999C1020.6 290.863 1021.11 291.643 1021.66 292.391L1021.2 292.771C1019.04 291.752 1018.49 291.175 1016.1 291.894C1013.73 292.607 1010.96 295.739 1009.64 297.745C1009.05 296.157 1007.6 295.019 1006.23 294.096C1005.25 293.439 1004.19 293.077 1003.02 293.018C986.611 292.195 969.517 293.84 953.073 293.896C937.359 293.95 904.426 291.796 890.911 294.326C889.973 294.022 889.431 293.572 888.646 292.992C893.538 290.875 903.554 292.358 909.32 291.829C924.956 290.07 1004.23 295.054 1010.93 289.487C1013.08 286.476 1012.41 282.158 1012.29 278.618C1010.87 265.967 1008.46 252.513 1004.79 240.347C1004.76 238.956 1004.68 237.526 1004.76 236.138C1004.94 233.096 1005.22 232.992 1007.43 230.969Z"/>
	<path fill="#2F92DD" transform="scale(2.06117 2.06117)" d="M893.593 233.014C894.572 232.417 895.228 232.04 896.406 231.989C907.682 231.5 995.784 230.67 1001.11 232.103C1002.6 232.506 1002.89 233.2 1003.47 234.55C1004.25 236.331 1004.47 238.439 1004.79 240.347C1008.46 252.513 1010.87 265.967 1012.29 278.618C1012.41 282.158 1013.08 286.476 1010.93 289.487C1004.23 295.054 924.956 290.07 909.32 291.829C903.122 290.914 891.893 293.439 886.719 290.102C884.095 288.409 884.072 286.324 883.427 283.55C888.266 267.423 889.969 249.585 893.593 233.014Z"/>
	<path fill="#FEFEFE" transform="scale(2.06117 2.06117)" d="M0 0L284.098 0L434.42 0L536.284 0L536.667 1024L0 1024L0 956.85L0 743.18L0 0Z"/>
	<path fill="#2F81DE" transform="scale(2.06117 2.06117)" d="M458.001 618.698C476.28 619.706 493.523 620.306 506.744 634.827C503.486 638.482 500.171 640.763 496.037 643.265L489.319 646.745C489.57 642.24 489.793 640.111 487.677 636.058C489.009 634.972 489.097 634.774 489.644 633.137C489.429 632.634 489.305 632.24 488.982 631.811C484.471 625.826 465.06 622.248 457.786 621.24L458.001 618.698Z"/>
	<path fill="#E3E9E7" transform="scale(2.06117 2.06117)" d="M374 692.036C375.763 684.947 376.326 678.491 377.218 671.311C377.839 679.799 380.086 685.806 386.774 691.615C394.063 697.946 404.093 700.739 413.466 702.218C415.245 702.499 418.82 702.501 420.336 703.171C420.921 703.43 422.08 704.987 422.408 705.556C419.01 709.05 415.467 711.222 410.765 712.601C402.874 714.914 394.071 714.347 386.833 710.27C378.84 705.767 376.449 700.375 374 692.036Z"/>
	<path fill="#E3E9E7" transform="scale(2.06117 2.06117)" d="M229.403 992.877C227.423 994.662 225.411 996.446 223.155 997.878C216.882 1001.86 208.054 1003.4 200.815 1001.73Q200.21 1001.59 199.613 1001.43Q199.015 1001.26 198.427 1001.07Q197.839 1000.87 197.262 1000.65Q196.684 1000.42 196.119 1000.16Q195.554 999.908 195.003 999.624Q194.452 999.341 193.916 999.029Q193.38 998.717 192.861 998.378Q192.342 998.04 191.84 997.675Q191.339 997.31 190.857 996.92Q190.375 996.53 189.914 996.115Q189.453 995.701 189.013 995.264Q188.574 994.827 188.157 994.367Q187.741 993.908 187.348 993.428Q186.956 992.948 186.588 992.449Q186.221 991.949 185.88 991.432Q185.538 990.914 185.224 990.38C179.164 980.246 181.829 969.897 184.55 959.275C184.863 967.595 187.252 974.53 193.549 980.289C208.788 994.23 221.185 986.74 227.589 989.798C228.791 990.372 229.099 991.748 229.403 992.877Z"/>
	<path fill="#0C226C" transform="scale(2.06117 2.06117)" d="M199.847 938.027C202.94 943.598 206.316 947.631 211.032 951.882C218.233 958.372 229.292 967.467 239.364 967.689C252.136 967.97 289.293 934.535 307.704 929.468C311.542 928.412 316.284 928.738 320.271 928.541C320.171 928.787 320.065 929.032 319.973 929.281C319.584 930.336 319.687 931.157 319.714 932.259C319.825 936.656 314.594 944.228 311.595 947.197C309.334 949.437 306.799 951.232 303.482 951.232C301.34 951.232 298.64 949.934 296.771 950.074C293.828 950.295 254.652 977.1 247.346 980.664C245.974 985.368 243.717 990.476 239.111 992.843C236.384 994.246 232.882 994.27 230.056 993.16C229.835 993.073 229.62 992.971 229.403 992.877C229.099 991.748 228.791 990.372 227.589 989.798C221.185 986.74 208.788 994.23 193.549 980.289C187.252 974.53 184.863 967.595 184.55 959.275C188.055 949.997 192.529 944.527 199.847 938.027Z"/>
	<path fill="#E3E9E7" transform="scale(2.06117 2.06117)" d="M306.259 932.49C308.84 932.567 310.066 932.959 312.11 934.545C312.43 935.429 313.057 936.563 312.948 937.494C312.39 942.229 309.108 945.265 305.555 948.04C303.773 947.879 302.296 947.296 300.633 946.66C299.876 945.522 299.086 944.785 299.123 943.368C299.234 939.117 303.493 935.273 306.259 932.49Z"/>
	<path fill="#E3E9E7" transform="scale(2.06117 2.06117)" d="M239.237 974.497C240.12 974.755 241.129 975.028 241.91 975.521C244.168 976.949 244.473 978.107 245.108 980.511C244.315 985.595 240.648 988.399 236.771 991.323C234.785 991.059 233.678 990.19 232.083 989.029C231.737 988.133 231.034 986.918 231.133 985.969C231.646 981.062 235.744 977.524 239.237 974.497Z"/>
	<path fill="#0C226C" transform="scale(2.06117 2.06117)" d="M496.037 643.265C500.171 640.763 503.486 638.482 506.744 634.827C508.823 639.476 509.951 642.336 508.078 647.298C506.018 652.756 503.018 656.538 501.774 662.507C499.633 665.015 497.71 667.714 494.561 668.973C492.135 668.843 490.292 668.287 488.035 667.466C475.076 669.248 456.783 690.067 441.16 693.264C439.149 698.293 436.632 705.249 431.322 707.619C429.135 708.595 426.582 708.378 424.482 707.246C423.698 706.823 423.028 706.185 422.408 705.556C422.08 704.987 420.921 703.43 420.336 703.171C418.82 702.501 415.245 702.499 413.466 702.218C404.093 700.739 394.063 697.946 386.774 691.615C380.086 685.806 377.839 679.799 377.218 671.311C379.58 661.707 384.049 655.962 390.716 649.009C396.32 661.89 412.988 675.542 426.024 680.67C427.466 681.237 428.94 681.469 430.482 681.566C433.514 677.709 447.98 672.278 453.335 669.347C465.676 662.593 477.789 654.807 489.319 646.745L496.037 643.265Z"/>
	<path fill="#E3E9E7" transform="scale(2.06117 2.06117)" d="M497.606 648.722C499.448 650.625 501.323 651.965 501.152 654.918C501.052 656.625 500.465 658.47 500.026 660.123Q499.541 660.694 499.036 661.248C496.693 663.798 494.848 665.432 491.246 665.594C489.931 664.757 489.027 664.505 488.478 662.988C487.586 660.521 488.087 657.792 489.212 655.479C491.087 651.624 493.702 650.139 497.606 648.722Z"/>
	<path fill="#E3E9E7" transform="scale(2.06117 2.06117)" d="M431.215 687.392C433.274 687.818 434.572 688.589 436.275 689.801C436.753 690.79 437.64 692.058 437.605 693.151C437.443 698.32 433.889 701.683 430.397 705.076C429.279 704.909 427.942 704.776 426.907 704.317C424.549 703.272 424.328 701.772 423.669 699.544C424.275 694.242 427.329 690.765 431.215 687.392Z"/>
	<path fill="#2F92DD" transform="scale(2.06117 2.06117)" d="M390.716 649.009C396.441 642.878 402.172 636.723 408.525 631.231C423.791 618.03 438.916 617.366 458.001 618.698L457.786 621.24C465.06 622.248 484.471 625.826 488.982 631.811C489.305 632.24 489.429 632.634 489.644 633.137C489.097 634.774 489.009 634.972 487.677 636.058C489.793 640.111 489.57 642.24 489.319 646.745C477.789 654.807 465.676 662.593 453.335 669.347C447.98 672.278 433.514 677.709 430.482 681.566C428.94 681.469 427.466 681.237 426.024 680.67C412.988 675.542 396.32 661.89 390.716 649.009Z"/>
	<path fill="#0C226C" transform="scale(2.06117 2.06117)" d="M457.786 621.24C465.06 622.248 484.471 625.826 488.982 631.811C489.305 632.24 489.429 632.634 489.644 633.137C489.097 634.774 489.009 634.972 487.677 636.058C484.545 637.71 481.618 639.945 478.693 641.947C473.43 633.96 458.757 622.931 457.786 621.24Z"/>
	<path fill="#F06830" transform="scale(2.06117 2.06117)" d="M199.847 938.027C201.913 934.398 205.066 931.063 208.064 928.161C223.717 913.01 243.722 902.676 265.757 903.108L278.776 903.925C290.887 903.692 308.992 903.177 318.269 912.36C320.814 914.879 321.725 917.756 321.654 921.27C321.603 923.793 321.713 926.387 320.271 928.541C316.284 928.738 311.542 928.412 307.704 929.468C289.293 934.535 252.136 967.97 239.364 967.689C229.292 967.467 218.233 958.372 211.032 951.882C206.316 947.631 202.94 943.598 199.847 938.027Z"/>
	<path fill="#03020E" transform="scale(2.06117 2.06117)" d="M265.757 903.108L278.776 903.925C285.748 905.774 295.705 907.547 299.999 913.82C300.098 915.305 300.395 916.226 299.618 917.548C298.415 919.594 295.578 921.919 293.214 922.385C293.168 922.394 292.243 922.543 292.155 922.511C288.116 921.037 281.904 914.018 278.278 911.226C274.34 908.195 269.811 906.014 265.757 903.108Z"/>
	<path fill="#0A4F2E" transform="scale(2.06117 2.06117)" d="M284.098 0L434.42 0L434.239 194.817C434.305 239.879 436.05 285.719 431.814 330.607C413.794 521.57 313.067 674.62 180.44 807.204Q152.663 834.563 123.409 860.336Q94.1539 886.109 63.5122 910.216C43.1274 926.458 22.3479 943.398 0 956.85L0 743.18C63.1247 704.357 97.6372 635.487 150.654 586.219C193.383 546.511 247.809 522.297 287.482 478.862C357.005 402.746 384.254 281.549 347.873 184.171C338.932 160.239 326.222 138.557 314.093 116.19C292.727 76.7909 286.105 44.2314 284.098 0Z"/>
	<path fill="#69C76B" transform="scale(2.06117 2.06117)" d="M0 0L284.098 0C286.105 44.2314 292.727 76.7909 314.093 116.19C326.222 138.557 338.932 160.239 347.873 184.171C384.254 281.549 357.005 402.746 287.482 478.862C247.809 522.297 193.383 546.511 150.654 586.219C97.6372 635.487 63.1247 704.357 0 743.18L0 0Z"/>
	<path fill="#FEFEFE" transform="scale(2.06117 2.06117)" d="M1249.25 0L1361.21 0L1443.23 0L1682.89 0L1896.88 0L2046.25 0C2049.22 4.73803 2049.21 35.0164 2047.58 41.1751C2047.31 42.2075 2046.83 43.1631 2046.29 44.0758C2049.16 48.6636 2049.1 85.2037 2047.59 91.5904C2047.39 92.4179 2047.02 93.203 2046.63 93.9498C2048.58 98.5841 2049.1 107.618 2047 112.318C2046.89 112.571 2046.76 112.816 2046.64 113.064C2047.32 114.563 2047.79 115.976 2047.89 117.63C2048.75 132.641 2049.41 272.111 2047.16 277.929C2046.96 278.465 2046.88 278.586 2046.65 279.049C2047.33 280.564 2047.79 281.984 2047.88 283.653C2048.85 301.886 2049.03 472.093 2047.17 476.871C2046.97 477.387 2046.89 477.518 2046.66 477.965C2047.89 480.8 2047.93 483.244 2047.98 486.292C2048.57 527.473 2048.03 568.74 2048.03 609.928L2048.01 849.933C2048.01 868.512 2049.7 1016.28 2047.29 1022.02C2046.99 1022.73 2046.66 1023.35 2046.25 1024L1460.24 1024L1360.33 1024L1249.22 1024C1249.81 1023.07 1250.3 1022.07 1250.52 1020.98C1251.94 1013.78 1250.89 1004.25 1250.9 996.842L1250.9 939.641L1250.85 720.631L1250.97 240.03L1251.04 83.9955C1251.04 57.9508 1252.05 31.4347 1250.86 5.43563C1250.77 3.30554 1250.4 1.82765 1249.25 0Z"/>
	<path fill="#E3E9E7" transform="scale(2.06117 2.06117)" d="M1741.83 266.915C1741.93 267.064 1742.04 267.21 1742.14 267.361C1744.3 270.56 1745.06 274.385 1746.55 277.906C1750.96 288.372 1761.74 292.173 1771.96 294.341C1778.31 295.689 1781.26 295.232 1785.04 301.079L1785.57 301.907C1778.5 300.898 1771.8 304.845 1762.75 303.279C1755.61 302.044 1749.29 298.862 1745.12 292.784C1738.97 283.815 1740.11 276.807 1741.83 266.915Z"/>
	<path fill="#E3E9E7" transform="scale(2.06117 2.06117)" d="M1382.9 566.852C1380.23 568.967 1372.06 569.832 1368.54 570.224C1358.82 571.305 1348.37 567.641 1340.8 561.618C1333.39 555.715 1328.57 547.468 1330.94 537.831C1331.65 534.962 1332.9 532.309 1332.46 529.307C1332.44 529.148 1332.4 528.991 1332.37 528.833C1336.43 541.756 1341.96 550.501 1354.47 556.941C1364.51 562.107 1373.46 560.746 1379.28 563.141C1380.69 563.721 1382.09 565.618 1382.9 566.852Z"/>
	<path fill="#E3E9E7" transform="scale(2.06117 2.06117)" d="M2009.7 134.099C2007.29 135.701 2004.88 137.189 2002.2 138.313C1994.85 141.4 1986.53 140.802 1979.25 137.775C1971.31 134.474 1964.23 128.131 1961.1 120.005C1958.33 112.832 1959.68 105.695 1962.78 98.8835C1962.89 99.0454 1963 99.2056 1963.1 99.3693C1965.03 102.403 1965.86 105.811 1967.47 109.003C1975.52 124.968 1981.38 125.547 1997.44 131.826C2001.12 131.227 2005.93 129.286 2009.38 130.306C2009.67 131.645 2009.88 132.715 2009.7 134.099Z"/>
	<path fill="#E3E9E7" transform="scale(2.06117 2.06117)" d="M1554.53 407.086C1552.04 409.626 1542.03 411.364 1538.28 411.686C1527.12 412.643 1515.4 408.596 1506.93 401.333C1494.11 390.336 1501.55 380.615 1500.52 366.838C1502.99 378.845 1507.32 387.005 1518 393.984C1525.19 398.686 1533.22 400.972 1541.67 401.928C1543.15 402.095 1546.36 401.984 1547.59 402.498C1550.77 403.827 1549.32 407.047 1554.53 407.086Z"/>
	<path fill="#0C226C" transform="scale(2.06117 2.06117)" d="M1980.07 75.8139C1982.1 76.9271 1990.45 94.2055 1996.94 99.284C2003.39 104.326 2011.04 104.577 2017.77 108.354C2023.5 106.596 2043.08 98.211 2046.63 93.9498C2048.58 98.5841 2049.1 107.618 2047 112.318C2046.89 112.571 2046.76 112.816 2046.64 113.064C2043.69 117.077 2035.02 119.89 2030.41 121.689C2028.74 126.902 2026.56 131.904 2021.41 134.51C2018.99 135.737 2016.15 136.658 2013.48 135.725C2012.19 135.272 2010.94 134.689 2009.7 134.099C2009.88 132.715 2009.67 131.645 2009.38 130.306C2005.93 129.286 2001.12 131.227 1997.44 131.826C1981.38 125.547 1975.52 124.968 1967.47 109.003C1965.86 105.811 1965.03 102.403 1963.1 99.3693C1963 99.2056 1962.89 99.0454 1962.78 98.8835C1965.08 96.3755 1965.93 92.4042 1968.06 89.5212C1971.69 84.5854 1976.58 80.7448 1980.07 75.8139Z"/>
	<path fill="#E3E9E7" transform="scale(2.06117 2.06117)" d="M2019.86 117.499C2021.35 117.128 2023.25 116.477 2024.77 116.774C2026.56 117.125 2026.85 118.053 2027.8 119.418C2027.93 121.647 2027.53 123.191 2026.48 125.118C2024.52 128.712 2022.36 130.305 2018.5 131.501C2017.42 131.899 2015.84 131.891 2014.68 132.035C2014.11 131.504 2013.44 131.194 2013.39 130.388C2013.04 125.356 2016.8 121.045 2019.86 117.499Z"/>
	<path fill="#F06830" transform="scale(2.06117 2.06117)" d="M2046.29 44.0758C2049.16 48.6636 2049.1 85.2037 2047.59 91.5904C2047.39 92.4179 2047.02 93.203 2046.63 93.9498C2043.08 98.211 2023.5 106.596 2017.77 108.354C2011.04 104.577 2003.39 104.326 1996.94 99.284C1990.45 94.2055 1982.1 76.9271 1980.07 75.8139C1984.26 73.6211 1988.24 70.1959 1992.17 67.4915C2011.77 53.9993 2021.73 46.3105 2046.29 44.0758Z"/>
	<path fill="#0C226C" transform="scale(2.06117 2.06117)" d="M1761.19 238.975C1761.33 239.218 1761.48 239.457 1761.6 239.705C1762.71 241.836 1761.94 245.389 1762.5 247.852C1764.77 257.781 1775.74 266.586 1784.86 269.978C1793.79 273.3 1802.44 273.174 1811.07 269.088C1827.39 261.362 1857.08 237.643 1874.2 238.237L1876.71 239.527C1877.52 242.048 1877.66 242.427 1876.95 244.949C1875.21 250.846 1872.96 257.321 1867.3 260.615C1863.88 262.609 1859.73 260.609 1856.15 261.846C1845.45 265.551 1816.48 281.883 1806.82 288.682C1798.48 294.554 1797.2 302.197 1785.57 301.907L1785.04 301.079C1781.26 295.232 1778.31 295.689 1771.96 294.341C1761.74 292.173 1750.96 288.372 1746.55 277.906C1745.06 274.385 1744.3 270.56 1742.14 267.361C1742.04 267.21 1741.93 267.064 1741.83 266.915C1746.6 252.71 1749.82 248.662 1761.19 238.975Z"/>
	<path fill="#E3E9E7" transform="scale(2.06117 2.06117)" d="M1794.14 284.499C1797.06 284.2 1798.11 283.884 1800.79 285.272L1801.47 287.521C1801.23 288.982 1800.77 290.196 1799.95 291.426C1797.06 295.718 1794.29 297.536 1789.25 298.501C1787.22 298.408 1786.75 298.487 1785.01 297.31C1785.02 297.122 1785.02 296.934 1785.04 296.746C1785.46 291.351 1790.29 287.71 1794.14 284.499Z"/>
	<path fill="#FEFEFE" transform="scale(2.06117 2.06117)" d="M1866.78 242.498C1867.56 242.392 1868.41 242.26 1869.19 242.346C1871.75 242.63 1872.13 243.314 1873.53 245.268C1873.64 247.185 1873.46 248.699 1872.58 250.428C1870.66 254.196 1868.28 256.482 1864.28 257.819C1863.95 257.893 1863.63 258.001 1863.3 258.041C1861.03 258.316 1860.3 257.852 1858.82 256.392C1858.79 255.82 1858.76 255.585 1858.79 254.968C1859.08 249.958 1863.39 245.754 1866.78 242.498Z"/>
	<path fill="#0C226C" transform="scale(2.06117 2.06117)" d="M1388.16 539.186C1388.41 539.104 1388.67 539.024 1388.92 538.94C1403.03 534.191 1449.14 500.751 1460.58 505.581C1462.29 506.301 1463.36 507.214 1463.81 509.017C1464.45 511.629 1463.96 515.465 1462.62 517.764C1462.32 522.367 1460.56 526.64 1457 529.715C1454.9 531.527 1452.2 532.666 1449.39 532.457C1447.14 532.289 1444.77 531.007 1442.51 531.404C1432.68 533.125 1410.19 547.377 1400.87 552.965C1399.6 558.136 1397.9 561.42 1393.24 564.283C1389.76 566.429 1386.95 566.905 1382.9 566.852C1382.09 565.618 1380.69 563.721 1379.28 563.141C1373.46 560.746 1364.51 562.107 1354.47 556.941C1341.96 550.501 1336.43 541.756 1332.37 528.833C1337.52 521.021 1341.19 515.504 1346.94 507.979C1347.09 508.139 1347.24 508.296 1347.38 508.458C1352.39 514.092 1355.02 520.884 1361.2 525.666C1367.95 530.886 1383.48 534.608 1388.16 539.186Z"/>
	<path fill="#E3E9E7" transform="scale(2.06117 2.06117)" d="M1390.22 547.497L1393.97 547.233C1396.25 548.429 1396.33 548.585 1397.43 550.927C1397.36 553.641 1396.82 555.475 1395.38 557.755C1393.23 561.149 1391.11 562.365 1387.25 563.236C1387.2 563.251 1387.14 563.279 1387.08 563.281C1384.9 563.35 1384.31 563.438 1382.8 561.867C1382.74 560.745 1382.7 559.596 1382.85 558.479C1383.5 553.526 1386.35 550.302 1390.22 547.497Z"/>
	<path fill="#FEFEFE" transform="scale(2.06117 2.06117)" d="M1450.72 512.497C1451.99 512.263 1453.75 511.781 1455.04 511.911C1457.36 512.145 1458.05 513.658 1459.3 515.345C1459.8 517.912 1459.75 519.637 1458.74 522.037C1457.3 525.475 1455.6 527.112 1452.16 528.502C1450.47 529.384 1448.71 529.181 1446.85 529.16C1446.31 528.537 1445.41 527.802 1445.27 526.985C1444.43 521.727 1447.86 516.564 1450.72 512.497Z"/>
	<path fill="#020934" transform="scale(2.06117 2.06117)" d="M1521.84 345.66C1522.58 346.787 1523.14 347.261 1523.18 348.649C1523.45 356.449 1526.27 359.445 1531.92 364.624C1539.36 371.436 1548.98 377.229 1559.43 376.595C1576.89 375.534 1619.33 338.367 1631.15 343.268C1632.67 345.465 1633.16 346.401 1632.73 349.16C1633.94 353.231 1632.58 356.71 1630.64 360.324C1628.72 363.896 1625.54 368.357 1621.45 369.499C1618.3 370.378 1614.6 369.309 1611.66 368.084C1597.92 376.6 1583.2 387.017 1568.17 393.057C1567.78 397.328 1565.14 400.929 1561.93 403.604C1559.66 405.506 1557.42 406.46 1554.53 407.086C1549.32 407.047 1550.77 403.827 1547.59 402.498C1546.36 401.984 1543.15 402.095 1541.67 401.928C1533.22 400.972 1525.19 398.686 1518 393.984C1507.32 387.005 1502.99 378.845 1500.52 366.838C1501.24 366.081 1501.04 366.364 1501.55 365.603C1507.4 357.04 1514.07 352.307 1521.84 345.66Z"/>
	<path fill="#E3E9E7" transform="scale(2.06117 2.06117)" d="M1622.7 349.498L1626.94 349.087C1629.24 350.194 1629.42 350.252 1630.56 352.516C1630.53 354.456 1630.25 355.953 1629.35 357.668C1627.24 361.71 1624.62 364.579 1620.22 365.97L1618.51 366.524L1618.71 366.313L1616.14 366.17C1615.22 364.988 1615.05 362.849 1615.24 361.354C1615.93 356.03 1618.66 352.763 1622.7 349.498Z"/>
	<path fill="#E3E9E7" transform="scale(2.06117 2.06117)" d="M1556.51 387.498C1558.15 387.213 1559.84 387.189 1561.49 387.104C1563.86 388.563 1564.01 388.812 1565.12 391.37C1565.11 393.476 1564.85 395.053 1563.93 396.938C1562.16 400.554 1560.16 402.369 1556.34 403.661C1555.41 403.935 1554.84 404.022 1553.85 403.9C1551.51 403.611 1551.48 403.483 1550.05 401.732C1549.48 396.175 1553.24 391.573 1556.51 387.498Z"/>
	<path fill="#2F92DD" transform="scale(2.06117 2.06117)" d="M1346.94 507.979L1347.53 507.615C1352.09 504.756 1356.02 500.924 1360.39 497.77C1384.01 480.734 1403.3 470.435 1433.15 476.917C1444.52 479.385 1460.15 485.403 1466.69 495.453C1469.59 499.9 1471.1 505.197 1469.92 510.467C1469.41 512.72 1468.49 514.8 1466.47 516.08C1465.3 516.818 1463.95 517.386 1462.62 517.764C1463.96 515.465 1464.45 511.629 1463.81 509.017C1463.36 507.214 1462.29 506.301 1460.58 505.581C1449.14 500.751 1403.03 534.191 1388.92 538.94C1388.67 539.024 1388.41 539.104 1388.16 539.186C1383.48 534.608 1367.95 530.886 1361.2 525.666C1355.02 520.884 1352.39 514.092 1347.38 508.458C1347.24 508.296 1347.09 508.139 1346.94 507.979Z"/>
	<path fill="#0C226C" transform="scale(2.06117 2.06117)" d="M1417.65 481.498C1421.72 480.966 1426.21 481.545 1430.16 482.581C1436.14 484.151 1448.81 488.227 1452.05 493.652L1451.4 495.472L1447.17 496.298C1444.33 498.483 1440.16 499.748 1436.84 501.137C1433.31 494.095 1423.52 486.904 1417.65 481.498Z"/>
	<path fill="#E3E9E7" transform="scale(2.06117 2.06117)" d="M1521.84 345.66C1551.44 327.497 1579.23 304.426 1616.3 313.254C1625.07 315.342 1635.25 319.366 1640.26 327.313C1642.48 330.827 1643.61 335.117 1642.66 339.23C1641.96 342.275 1639.38 346.462 1636.65 348.017C1635.47 348.69 1634.05 348.939 1632.73 349.16C1633.16 346.401 1632.67 345.465 1631.15 343.268C1619.33 338.367 1576.89 375.534 1559.43 376.595C1548.98 377.229 1539.36 371.436 1531.92 364.624C1526.27 359.445 1523.45 356.449 1523.18 348.649C1523.14 347.261 1522.58 346.787 1521.84 345.66Z"/>
	<path fill="#020934" transform="scale(2.06117 2.06117)" d="M1590.64 314.497Q1591.78 314.184 1592.95 314.001Q1594.12 313.818 1595.31 313.768Q1596.49 313.718 1597.67 313.801Q1598.85 313.885 1600.02 314.1C1607.34 315.496 1618.69 322.306 1622.7 328.926C1623.87 330.854 1623.6 331.224 1623.17 333.335L1620.29 334.855C1617.28 336.707 1613.58 337.519 1610.2 338.515C1607.8 328.238 1595.66 323.173 1590.64 314.497Z"/>
	<path fill="#F06830" transform="scale(2.06117 2.06117)" d="M1761.19 238.975L1761.84 238.533C1769.16 233.473 1775.04 226.227 1782.06 220.658C1797.99 208.023 1813.02 206.739 1832.78 206.34C1839.49 206.205 1846.62 205.74 1853.25 206.829C1862.95 208.422 1872.04 212.965 1877.7 221.246C1880.73 225.67 1883.53 233.345 1882.46 238.736C1882.02 241.005 1880.78 242.928 1878.73 244.121C1878.17 244.447 1877.55 244.702 1876.95 244.949C1877.66 242.427 1877.52 242.048 1876.71 239.527L1874.2 238.237C1857.08 237.643 1827.39 261.362 1811.07 269.088C1802.44 273.174 1793.79 273.3 1784.86 269.978C1775.74 266.586 1764.77 257.781 1762.5 247.852C1761.94 245.389 1762.71 241.836 1761.6 239.705C1761.48 239.457 1761.33 239.218 1761.19 238.975Z"/>
	<path fill="#020934" transform="scale(2.06117 2.06117)" d="M1831.88 210.499C1838.89 209 1844.94 211.312 1851 214.745C1854.91 216.961 1859.77 220.51 1860.97 225.129C1861.67 227.842 1861.28 228.192 1859.89 230.501L1858.88 231.604C1850.49 232.152 1839.9 215.311 1831.88 210.499Z"/>
	<path fill="#0A4F2E" transform="scale(2.06117 2.06117)" d="M1361.21 0L1443.23 0L1682.89 0L1896.88 0L1896.73 0.746665C1894.27 3.99288 1827.27 39.2187 1818.57 44.0107L1633.09 145.203Q1547.96 192.332 1461.85 237.659C1440.13 248.978 1418.8 261.204 1397.32 272.992C1385.05 279.726 1372.42 287.553 1359.2 292.213C1359.75 291.367 1360.25 290.48 1360.55 289.511C1363.05 281.392 1361.85 177.185 1361.87 160.438C1361.93 109.222 1363.31 57.7949 1362.69 6.61171C1362.66 4.0953 1362.44 2.21664 1361.21 0Z"/>
	<path fill="#69C76B" transform="scale(2.06117 2.06117)" d="M1443.23 0L1682.89 0L1682.73 0.833228C1682.14 1.62048 1634.85 28.4607 1628.38 32.7895Q1600.37 51.6072 1574.78 73.5927C1557.76 88.3383 1542.12 107.92 1521.61 117.867C1508.36 124.293 1494.08 126.072 1479.98 121.118C1434.91 105.287 1444.86 57.0907 1445.17 19.7104C1445.22 14.1562 1446.08 5.45317 1443.52 0.509936C1443.43 0.33591 1443.33 0.169979 1443.23 0Z"/>
	<path fill="#0A4F2E" transform="scale(2.06117 2.06117)" d="M2046.65 279.049C2047.33 280.564 2047.79 281.984 2047.88 283.653C2048.85 301.886 2049.03 472.093 2047.17 476.871C2046.97 477.387 2046.89 477.518 2046.66 477.965C2027.65 490.936 2007.07 502.454 1987.5 514.675C1941.92 543.147 1895.48 574.002 1844.11 591.104C1797.33 606.677 1751.85 604.576 1704.95 614.745Q1699.42 615.93 1693.95 617.318Q1688.47 618.706 1683.05 620.294Q1677.62 621.883 1672.26 623.67Q1666.9 625.457 1661.61 627.441Q1656.32 629.424 1651.1 631.6Q1645.89 633.777 1640.76 636.144Q1635.63 638.512 1630.59 641.066Q1625.54 643.621 1620.6 646.359Q1615.66 649.097 1610.82 652.016Q1605.98 654.934 1601.25 658.029Q1596.52 661.123 1591.91 664.39Q1587.3 667.656 1582.81 671.09Q1578.33 674.525 1573.97 678.121Q1569.61 681.718 1565.39 685.473Q1561.16 689.228 1557.08 693.136Q1553 697.044 1549.06 701.1Q1545.13 705.155 1541.35 709.353Q1537.56 713.55 1533.94 717.884Q1530.31 722.218 1526.85 726.683Q1523.38 731.148 1520.08 735.737Q1516.79 740.326 1513.66 745.033Q1510.53 749.74 1507.58 754.56Q1504.63 759.379 1501.86 764.304Q1499.09 769.228 1496.5 774.251Q1493.91 779.275 1491.51 784.39Q1489.11 789.505 1486.9 794.705Q1484.69 799.905 1482.67 805.183Q1480.65 810.461 1478.83 815.81Q1477 821.159 1475.38 826.571Q1473.75 831.983 1472.33 837.452Q1470.9 842.92 1469.68 848.437Q1468.46 853.955 1467.44 859.513Q1463.57 879.694 1462.44 900.211C1461.71 916.319 1463.89 1017.28 1460.24 1024L1360.33 1024C1364.39 1017.52 1362.51 925.181 1363.25 908.751C1364.18 888.435 1367.18 867.642 1371.19 847.696C1381.72 795.249 1401.03 747.618 1427.62 701.384C1472.27 623.708 1534.59 561.782 1610.45 514.472C1630.05 502.248 1650.72 491.478 1670.97 480.361Q1725.13 450.798 1779.86 422.305C1795.06 414.374 1809.7 405.342 1824.61 396.892Q1872.06 369.803 1920.41 344.348L2003 301.429C2016.9 294.373 2033.37 288.084 2046.1 279.433C2046.28 279.308 2046.46 279.177 2046.65 279.049Z"/>
	<path fill="#69C76B" transform="scale(2.06117 2.06117)" d="M1460.24 1024C1463.89 1017.28 1461.71 916.319 1462.44 900.211Q1463.57 879.694 1467.44 859.513Q1468.46 853.955 1469.68 848.437Q1470.9 842.92 1472.33 837.452Q1473.75 831.983 1475.38 826.571Q1477 821.159 1478.83 815.81Q1480.65 810.461 1482.67 805.183Q1484.69 799.905 1486.9 794.705Q1489.11 789.505 1491.51 784.39Q1493.91 779.275 1496.5 774.251Q1499.09 769.228 1501.86 764.304Q1504.63 759.379 1507.58 754.56Q1510.53 749.74 1513.66 745.033Q1516.79 740.326 1520.08 735.737Q1523.38 731.148 1526.85 726.683Q1530.31 722.218 1533.94 717.884Q1537.56 713.55 1541.35 709.353Q1545.13 705.155 1549.06 701.1Q1553 697.044 1557.08 693.136Q1561.16 689.228 1565.39 685.473Q1569.61 681.718 1573.97 678.121Q1578.33 674.525 1582.81 671.09Q1587.3 667.656 1591.91 664.39Q1596.52 661.123 1601.25 658.029Q1605.98 654.934 1610.82 652.016Q1615.66 649.097 1620.6 646.359Q1625.54 643.621 1630.59 641.066Q1635.63 638.512 1640.76 636.144Q1645.89 633.777 1651.1 631.6Q1656.32 629.424 1661.61 627.44Q1666.9 625.457 1672.26 623.67Q1677.62 621.883 1683.05 620.294Q1688.47 618.706 1693.95 617.318Q1699.42 615.93 1704.95 614.745C1751.85 604.576 1797.33 606.677 1844.11 591.104C1895.48 574.002 1941.92 543.147 1987.5 514.675C2007.07 502.454 2027.65 490.936 2046.66 477.965C2047.89 480.8 2047.93 483.244 2047.98 486.292C2048.57 527.473 2048.03 568.74 2048.03 609.928L2048.01 849.933C2048.01 868.512 2049.7 1016.28 2047.29 1022.02C2046.99 1022.73 2046.66 1023.35 2046.25 1024L1460.24 1024Z"/>
</svg>
